<?xml version="1.0" encoding="UTF-8" standalone="no"?>
<!DOCTYPE svg PUBLIC "-//W3C//DTD SVG 1.1//EN" "http://www.w3.org/Graphics/SVG/1.1/DTD/svg11.dtd">
<svg width="100%" height="100%" viewBox="0 0 168 40" version="1.1" xmlns="http://www.w3.org/2000/svg" xmlns:xlink="http://www.w3.org/1999/xlink" xml:space="preserve" xmlns:serif="http://www.serif.com/" style="fill-rule:evenodd;clip-rule:evenodd;stroke-linejoin:round;stroke-miterlimit:2;">
    <g id="Icon" transform="matrix(1,0,0,1,-7.36219,0)">
        <g transform="matrix(1,0,0,1,-45.1566,7.36854)">
            <path d="M100.373,2.811C100.373,-2.547 96.023,-6.897 90.665,-6.897L71.25,-6.897C65.892,-6.897 61.542,-2.547 61.542,2.811L61.542,22.226C61.542,27.584 65.892,31.934 71.25,31.934L90.665,31.934C96.023,31.934 100.373,27.584 100.373,22.226L100.373,2.811Z" style="fill:rgb(253,77,77);"/>
        </g>
        <g transform="matrix(0.0631741,0,0,0.0631741,35.7868,20.3979)">
            <g transform="matrix(1,0,0,1,-256,-256)">
                <g>
                    <path d="M248,88C248,70.352 233.648,56 216,56C198.352,56 184,70.352 184,88C184,105.648 198.352,120 216,120C233.648,120 248,105.648 248,88ZM200,88C200,79.176 207.176,72 216,72C224.824,72 232,79.176 232,88C232,96.824 224.824,104 216,104C207.176,104 200,96.824 200,88Z" style="fill:white;fill-rule:nonzero;"/>
                    <path d="M296,120C313.648,120 328,105.648 328,88C328,70.352 313.648,56 296,56C278.352,56 264,70.352 264,88C264,105.648 278.352,120 296,120ZM296,72C304.824,72 312,79.176 312,88C312,96.824 304.824,104 296,104C287.176,104 280,96.824 280,88C280,79.176 287.176,72 296,72Z" style="fill:white;fill-rule:nonzero;"/>
                    <rect x="248" y="120" width="16" height="16" style="fill:white;"/>
                    <path d="M280,200L280,184L296,184L296,168L280,168L280,152L264,152L264,168L248,168L248,152L232,152L232,168L216,168L216,184L232,184L232,200L248,200L248,184L264,184L264,200L280,200Z" style="fill:white;fill-rule:nonzero;"/>
                    <path d="M472,57.368L472,33.584C472,19.48 460.52,8 446.416,8C434.264,8 423.72,16.648 421.328,28.568L419.088,39.768L416.976,37.656C413.384,34.064 408.408,32 403.312,32C392.664,32 384,40.664 384,51.312C384,61.2 386.896,70.776 392.384,78.992L399.696,89.96L392.232,149.648L361.096,211.928C356.496,213.616 352.168,215.944 348.072,218.664C343.44,216.976 338.576,216 333.576,216L308.696,216C317.504,207.4 323.568,195.936 325.192,182.944L327.6,163.712L334.456,156.848C350.928,140.384 360,118.488 360,95.192C360,47.12 320.88,8 272.808,8L239.2,8C191.12,8 152,47.12 152,95.192C152,118.488 161.072,140.376 177.536,156.848L184.392,163.712L186.8,182.944C188.424,195.936 194.488,207.4 203.296,216L178.416,216C170.016,216 161.88,218.464 154.888,223.128C154.08,223.672 153.344,224.288 152.584,224.88L135.272,217.992C131.32,216.664 127.192,216 123.008,216C108.232,216 94.952,224.208 88.344,237.424L86.512,241.08C82.248,249.608 80,259.16 80,268.688C80,276.096 82.336,283.112 86.544,289.032L66.448,329.224C64.84,332.424 64,336 64,339.576C64,345.856 66.608,351.6 70.8,355.832L56.72,412.136C46.104,423.632 40,438.952 40,454.624L40,478.416C40,492.52 51.48,504 65.584,504C77.736,504 88.28,495.352 90.672,483.44L92.912,472.232L95.032,474.352C98.624,477.936 103.6,480 108.688,480C119.336,480 128,471.336 128,460.688C128,450.8 125.104,441.224 119.616,433.008L112.304,422.04L119.768,362.352L136.16,329.576C136.488,336.176 138.792,342.216 142.536,347.176C138.592,350.088 136,354.728 136,360C136,377.648 150.352,392 168,392L224,392C226.816,392 229.488,391.424 232,390.528L232,423.184C221.456,413.6 207.68,408 192.824,408C180.256,408 167.8,412.16 157.752,419.688C144.136,429.888 136,446.152 136,463.176C136,475.408 138.888,487.672 144.36,498.592L147.04,504L364.96,504L367.632,498.616C373.112,487.672 376,475.416 376,463.176C376,446.144 367.864,429.888 354.256,419.688C344.2,412.16 331.752,408 319.176,408C304.32,408 290.536,413.6 280,423.184L280,390.528C282.512,391.424 285.184,392 288,392L344,392C361.648,392 376,377.648 376,360C376,354.728 373.408,350.088 369.464,347.168C373.512,341.808 376,335.216 376,328C376,322.728 373.408,318.088 369.464,315.168C373.512,309.808 376,303.216 376,296C376,295.208 375.88,294.448 375.768,293.688L376.728,294.008C380.68,295.328 384.808,296 388.992,296C403.76,296 417.048,287.792 423.656,274.576L425.488,270.92C429.752,262.392 432,252.84 432,243.312C432,235.904 429.664,228.888 425.464,222.968L445.56,182.784C447.16,179.584 448,176 448,172.424C448,166.152 445.392,160.4 441.2,156.176L455.28,99.872C466.04,88.256 472,73.288 472,57.368ZM405.656,48.968L413.304,56.624C416.376,59.704 420.864,60.848 425.064,59.584C429.24,58.328 432.376,54.888 433.24,50.592L437.016,31.712C437.912,27.24 441.864,24 446.416,24C451.704,24 456,28.304 456,33.584L456,57.368C456,66.136 453.544,74.52 449.048,81.8C444.04,75.672 436.584,72 428.424,72C424.296,72 420.168,72.976 416.472,74.824L410.744,77.688L405.696,70.12C401.968,64.528 400,58.032 400,51.312C400,48.608 403.744,47.064 405.656,48.968ZM426.472,149.136L408.864,145.616L415.408,93.248L423.624,89.136C428.776,86.552 435.456,88.8 438.024,93.936L439.528,96.936L426.472,149.136ZM360,296C360,304.824 352.824,312 344,312L288,312C283.584,312 280,308.416 280,304C280,299.584 283.584,296 288,296L360,296ZM360,328C360,336.824 352.824,344 344,344L288,344C283.584,344 280,340.416 280,336C280,331.584 283.584,328 288,328L360,328ZM248,408L264,408L264,446.104L260.424,453.256C258.736,456.648 253.264,456.64 251.584,453.264L248,446.112L248,408ZM248,392L248,376L264,376L264,392L248,392ZM152,328L224,328C228.416,328 232,331.584 232,336C232,340.416 228.416,344 224,344L168,344C159.176,344 152,336.824 152,328ZM224,264C228.416,264 232,267.584 232,272C232,276.416 228.416,280 224,280L168,280C159.176,280 152,272.824 152,264L224,264ZM152,296L224,296C228.416,296 232,299.584 232,304C232,308.416 228.416,312 224,312L168,312C159.176,312 152,304.824 152,296ZM264,312L248,312L248,280L264,280L264,312ZM248,328L264,328L264,360L248,360L248,328ZM264,264L248,264L248,232L264,232L264,264ZM344,280L288,280C283.584,280 280,276.416 280,272C280,267.584 283.584,264 288,264L360,264C360,272.824 352.824,280 344,280ZM348.232,236.44C352.544,239.312 355.68,243.392 357.672,248L288,248C285.184,248 282.512,248.576 280,249.472L280,232L333.576,232C338.816,232 343.872,233.536 348.232,236.44ZM202.68,180.96L199.6,156.288L188.848,145.544C175.408,132.088 168,114.208 168,95.192C168,55.936 199.936,24 239.192,24L272.8,24C312.064,24 344,55.936 344,95.192C344,114.208 336.592,132.088 323.152,145.536L312.4,156.28L309.32,180.952C306.824,200.936 289.752,216 269.624,216L242.376,216C222.248,216 205.176,200.936 202.68,180.96ZM163.768,236.44C168.128,233.536 173.184,232 178.424,232L232,232L232,249.472C229.488,248.576 226.816,248 224,248L154.328,248C156.32,243.392 159.448,239.312 163.768,236.44ZM100.832,248.232L102.664,244.576C106.544,236.816 114.344,231.992 123.016,231.992C125.472,231.992 127.888,232.384 129.784,233L141.472,237.656C137.952,243.912 136,251.016 136,258.424L136,264C136,271.216 138.488,277.808 142.536,283.168C140.784,284.464 139.328,286.104 138.224,288L115.312,288C110.152,288 105.304,285.992 101.656,282.344C98.008,278.696 96,273.84 96,268.688C96,261.624 97.672,254.552 100.832,248.232ZM80.76,336.376L99.024,299.848C104.016,302.464 109.52,304 115.312,304L131.056,304L107.576,350.96L85.744,346.592C82.416,345.928 80,342.976 80,339.576C80,338.48 80.264,337.368 80.76,336.376ZM85.528,362.864L103.144,366.384L96.6,418.76L88.392,422.872C83.224,425.448 76.552,423.208 73.984,418.08L72.48,415.072L85.528,362.864ZM106.344,463.032L98.688,455.376C95.608,452.296 91.128,451.152 86.92,452.424C82.752,453.68 79.624,457.12 78.752,461.408L74.976,480.296C74.088,484.76 70.136,488 65.584,488C60.296,488 56,483.704 56,478.416L56,454.624C56,446 58.504,437.528 62.976,430.232C67.976,436.336 75.424,440 83.576,440C87.696,440 91.824,439.024 95.528,437.176L101.256,434.312L106.296,441.88C110.032,447.472 112,453.968 112,460.688C112,463.392 108.248,464.936 106.344,463.032ZM224,376L168,376C159.176,376 152,368.824 152,360L224,360C228.416,360 232,363.584 232,368C232,372.416 228.416,376 224,376ZM319.176,424C328.304,424 337.344,427.016 344.656,432.504C354.264,439.696 360,451.168 360,463.176C360,471.664 358.256,480.16 354.92,488L340.32,488C342.72,481.128 344,473.856 344,466.592C344,451.928 332.072,440 317.408,440C305.936,440 295.8,447.312 292.168,458.184L288.408,469.464L303.592,474.528L307.344,463.248C308.792,458.912 312.832,456 317.408,456C323.248,456 328,460.752 328,466.592C328,473.968 326.264,481.36 323.024,488L188.968,488C185.736,481.352 184,473.968 184,466.592C184,460.752 188.752,456 194.592,456C199.16,456 203.208,458.912 204.648,463.248L208.408,474.528L223.592,469.464L219.824,458.184C216.2,447.312 206.064,440 194.592,440C179.928,440 168,451.928 168,466.592C168,473.856 169.28,481.12 171.68,488L157.08,488C153.752,480.176 152,471.672 152,463.176C152,451.16 157.736,439.688 167.352,432.488C174.648,427.016 183.696,424 192.824,424C209,424 223.56,432.992 230.792,447.472L237.272,460.432C240.84,467.56 248.024,472 256,472C263.976,472 271.16,467.56 274.736,460.424L281.216,447.472C288.448,432.992 303,424 319.176,424ZM344,376L288,376C283.584,376 280,372.416 280,368C280,363.584 283.584,360 288,360L360,360C360,368.824 352.824,376 344,376ZM411.168,263.768L409.336,267.424C405.464,275.176 397.664,280 388.992,280C386.536,280 384.12,279.608 381.8,278.832L373.592,276.096C375.12,272.36 376,268.288 376,264L376,258.424C376,246.968 371.352,236.224 363.384,228.344C369.416,225.6 375.952,224 382.624,224L396.688,224C401.848,224 406.696,226.008 410.344,229.664C413.992,233.304 416,238.152 416,243.312C416,250.376 414.328,257.448 411.168,263.768ZM431.24,175.624L412.976,212.152C407.992,209.536 402.48,208 396.688,208L382.624,208C382.032,208 381.464,208.128 380.872,208.144L404.416,161.04L426.248,165.4C429.576,166.072 432,169.024 432,172.424C432,173.528 431.744,174.632 431.24,175.624Z" style="fill:white;fill-rule:nonzero;"/>
                </g>
            </g>
        </g>
    </g>
    <g transform="matrix(1.18777,0,0,1.18777,-40.5478,6.46222)">
        <g transform="matrix(15.5366,0,0,15.5366,76.5246,17.3822)">
            <path d="M0.311,0.01C0.257,0.01 0.205,0.002 0.155,-0.013C0.104,-0.028 0.064,-0.049 0.035,-0.074L0.08,-0.175C0.109,-0.152 0.144,-0.134 0.186,-0.12C0.227,-0.105 0.269,-0.098 0.311,-0.098C0.363,-0.098 0.402,-0.106 0.428,-0.123C0.453,-0.14 0.466,-0.162 0.466,-0.189C0.466,-0.209 0.459,-0.226 0.445,-0.239C0.43,-0.252 0.412,-0.262 0.39,-0.269C0.368,-0.276 0.338,-0.285 0.3,-0.294C0.247,-0.307 0.204,-0.319 0.171,-0.332C0.137,-0.345 0.109,-0.365 0.086,-0.392C0.062,-0.419 0.05,-0.455 0.05,-0.501C0.05,-0.54 0.061,-0.575 0.082,-0.607C0.102,-0.638 0.134,-0.663 0.177,-0.682C0.219,-0.701 0.271,-0.71 0.332,-0.71C0.375,-0.71 0.417,-0.705 0.458,-0.694C0.499,-0.683 0.535,-0.668 0.565,-0.648L0.524,-0.547C0.493,-0.565 0.461,-0.579 0.428,-0.588C0.395,-0.597 0.362,-0.602 0.331,-0.602C0.28,-0.602 0.242,-0.593 0.217,-0.576C0.192,-0.559 0.179,-0.536 0.179,-0.507C0.179,-0.487 0.186,-0.471 0.201,-0.458C0.215,-0.445 0.233,-0.435 0.255,-0.428C0.277,-0.421 0.307,-0.412 0.345,-0.403C0.397,-0.391 0.44,-0.379 0.473,-0.366C0.506,-0.353 0.535,-0.333 0.559,-0.306C0.582,-0.279 0.594,-0.243 0.594,-0.198C0.594,-0.159 0.584,-0.124 0.563,-0.093C0.542,-0.062 0.51,-0.037 0.467,-0.018C0.424,0.001 0.372,0.01 0.311,0.01Z" style="fill:rgb(253,77,77);fill-rule:nonzero;"/>
        </g>
        <g transform="matrix(15.5366,0,0,15.5366,86.2971,17.3822)">
            <path d="M0.3,-0.229L0.207,-0.141L0.207,-0L0.082,-0L0.082,-0.742L0.207,-0.742L0.207,-0.294L0.466,-0.534L0.616,-0.534L0.393,-0.31L0.637,-0L0.485,-0L0.3,-0.229Z" style="fill:rgb(253,77,77);fill-rule:nonzero;"/>
        </g>
        <g transform="matrix(15.5366,0,0,15.5366,95.8366,17.3822)">
            <path d="M0.584,-0.264C0.584,-0.255 0.583,-0.243 0.582,-0.227L0.163,-0.227C0.17,-0.188 0.19,-0.157 0.221,-0.134C0.252,-0.111 0.29,-0.099 0.336,-0.099C0.395,-0.099 0.443,-0.118 0.481,-0.157L0.548,-0.08C0.524,-0.051 0.494,-0.03 0.457,-0.015C0.42,-0 0.379,0.007 0.333,0.007C0.274,0.007 0.223,-0.005 0.178,-0.028C0.133,-0.051 0.099,-0.084 0.075,-0.126C0.05,-0.167 0.038,-0.214 0.038,-0.267C0.038,-0.319 0.05,-0.366 0.074,-0.408C0.097,-0.449 0.13,-0.482 0.172,-0.505C0.214,-0.528 0.261,-0.54 0.314,-0.54C0.366,-0.54 0.413,-0.529 0.454,-0.506C0.495,-0.483 0.527,-0.45 0.55,-0.409C0.572,-0.367 0.584,-0.319 0.584,-0.264ZM0.314,-0.44C0.274,-0.44 0.24,-0.428 0.213,-0.405C0.185,-0.381 0.168,-0.349 0.162,-0.31L0.465,-0.31C0.46,-0.349 0.443,-0.38 0.416,-0.404C0.389,-0.428 0.355,-0.44 0.314,-0.44Z" style="fill:rgb(253,77,77);fill-rule:nonzero;"/>
        </g>
        <g transform="matrix(15.5366,0,0,15.5366,105.5,17.3822)">
            <rect x="0.082" y="-0.742" width="0.125" height="0.742" style="fill:rgb(253,77,77);fill-rule:nonzero;"/>
        </g>
        <g transform="matrix(15.5366,0,0,15.5366,109.99,17.3822)">
            <path d="M0.584,-0.264C0.584,-0.255 0.583,-0.243 0.582,-0.227L0.163,-0.227C0.17,-0.188 0.19,-0.157 0.221,-0.134C0.252,-0.111 0.29,-0.099 0.336,-0.099C0.395,-0.099 0.443,-0.118 0.481,-0.157L0.548,-0.08C0.524,-0.051 0.494,-0.03 0.457,-0.015C0.42,-0 0.379,0.007 0.333,0.007C0.274,0.007 0.223,-0.005 0.178,-0.028C0.133,-0.051 0.099,-0.084 0.075,-0.126C0.05,-0.167 0.038,-0.214 0.038,-0.267C0.038,-0.319 0.05,-0.366 0.074,-0.408C0.097,-0.449 0.13,-0.482 0.172,-0.505C0.214,-0.528 0.261,-0.54 0.314,-0.54C0.366,-0.54 0.413,-0.529 0.454,-0.506C0.495,-0.483 0.527,-0.45 0.55,-0.409C0.572,-0.367 0.584,-0.319 0.584,-0.264ZM0.314,-0.44C0.274,-0.44 0.24,-0.428 0.213,-0.405C0.185,-0.381 0.168,-0.349 0.162,-0.31L0.465,-0.31C0.46,-0.349 0.443,-0.38 0.416,-0.404C0.389,-0.428 0.355,-0.44 0.314,-0.44Z" style="fill:rgb(253,77,77);fill-rule:nonzero;"/>
        </g>
        <g transform="matrix(15.5366,0,0,15.5366,119.654,17.3822)">
            <path d="M0.403,-0.029C0.388,-0.017 0.371,-0.008 0.35,-0.002C0.329,0.004 0.306,0.007 0.283,0.007C0.224,0.007 0.179,-0.008 0.147,-0.039C0.115,-0.07 0.099,-0.114 0.099,-0.173L0.099,-0.43L0.011,-0.43L0.011,-0.53L0.099,-0.53L0.099,-0.652L0.224,-0.652L0.224,-0.53L0.367,-0.53L0.367,-0.43L0.224,-0.43L0.224,-0.176C0.224,-0.15 0.23,-0.13 0.243,-0.117C0.256,-0.103 0.274,-0.096 0.298,-0.096C0.326,-0.096 0.349,-0.103 0.368,-0.118L0.403,-0.029Z" style="fill:rgb(253,77,77);fill-rule:nonzero;"/>
        </g>
        <g transform="matrix(15.5366,0,0,15.5366,125.962,17.3822)">
            <path d="M0.322,0.007C0.268,0.007 0.219,-0.005 0.176,-0.028C0.133,-0.051 0.099,-0.084 0.075,-0.126C0.05,-0.167 0.038,-0.214 0.038,-0.267C0.038,-0.32 0.05,-0.367 0.075,-0.408C0.099,-0.449 0.133,-0.482 0.176,-0.505C0.219,-0.528 0.268,-0.54 0.322,-0.54C0.377,-0.54 0.426,-0.528 0.469,-0.505C0.512,-0.482 0.546,-0.449 0.571,-0.408C0.595,-0.367 0.607,-0.32 0.607,-0.267C0.607,-0.214 0.595,-0.167 0.571,-0.126C0.546,-0.084 0.512,-0.051 0.469,-0.028C0.426,-0.005 0.377,0.007 0.322,0.007ZM0.322,-0.1C0.368,-0.1 0.406,-0.115 0.436,-0.146C0.466,-0.177 0.481,-0.217 0.481,-0.267C0.481,-0.317 0.466,-0.357 0.436,-0.388C0.406,-0.419 0.368,-0.434 0.322,-0.434C0.276,-0.434 0.238,-0.419 0.209,-0.388C0.179,-0.357 0.164,-0.317 0.164,-0.267C0.164,-0.217 0.179,-0.177 0.209,-0.146C0.238,-0.115 0.276,-0.1 0.322,-0.1Z" style="fill:rgb(253,77,77);fill-rule:nonzero;"/>
        </g>
        <g transform="matrix(15.5366,0,0,15.5366,135.983,17.3822)">
            <path d="M0.385,-0.54C0.452,-0.54 0.506,-0.52 0.547,-0.481C0.588,-0.442 0.608,-0.383 0.608,-0.306L0.608,-0L0.483,-0L0.483,-0.29C0.483,-0.337 0.472,-0.372 0.45,-0.396C0.428,-0.419 0.397,-0.431 0.356,-0.431C0.31,-0.431 0.274,-0.417 0.247,-0.39C0.22,-0.362 0.207,-0.322 0.207,-0.27L0.207,-0L0.082,-0L0.082,-0.534L0.201,-0.534L0.201,-0.465C0.222,-0.49 0.248,-0.508 0.279,-0.521C0.31,-0.534 0.346,-0.54 0.385,-0.54Z" style="fill:rgb(253,77,77);fill-rule:nonzero;"/>
        </g>
        <g transform="matrix(15.5366,0,0,15.5366,146.626,17.3822)">
            <path d="M0.311,0.01C0.257,0.01 0.205,0.002 0.155,-0.013C0.104,-0.028 0.064,-0.049 0.035,-0.074L0.08,-0.175C0.109,-0.152 0.144,-0.134 0.186,-0.12C0.227,-0.105 0.269,-0.098 0.311,-0.098C0.363,-0.098 0.402,-0.106 0.428,-0.123C0.453,-0.14 0.466,-0.162 0.466,-0.189C0.466,-0.209 0.459,-0.226 0.445,-0.239C0.43,-0.252 0.412,-0.262 0.39,-0.269C0.368,-0.276 0.338,-0.285 0.3,-0.294C0.247,-0.307 0.204,-0.319 0.171,-0.332C0.137,-0.345 0.109,-0.365 0.086,-0.392C0.062,-0.419 0.05,-0.455 0.05,-0.501C0.05,-0.54 0.061,-0.575 0.082,-0.607C0.102,-0.638 0.134,-0.663 0.177,-0.682C0.219,-0.701 0.271,-0.71 0.332,-0.71C0.375,-0.71 0.417,-0.705 0.458,-0.694C0.499,-0.683 0.535,-0.668 0.565,-0.648L0.524,-0.547C0.493,-0.565 0.461,-0.579 0.428,-0.588C0.395,-0.597 0.362,-0.602 0.331,-0.602C0.28,-0.602 0.242,-0.593 0.217,-0.576C0.192,-0.559 0.179,-0.536 0.179,-0.507C0.179,-0.487 0.186,-0.471 0.201,-0.458C0.215,-0.445 0.233,-0.435 0.255,-0.428C0.277,-0.421 0.307,-0.412 0.345,-0.403C0.397,-0.391 0.44,-0.379 0.473,-0.366C0.506,-0.353 0.535,-0.333 0.559,-0.306C0.582,-0.279 0.594,-0.243 0.594,-0.198C0.594,-0.159 0.584,-0.124 0.563,-0.093C0.542,-0.062 0.51,-0.037 0.467,-0.018C0.424,0.001 0.372,0.01 0.311,0.01Z" style="fill:rgb(253,77,77);fill-rule:nonzero;"/>
        </g>
        <g transform="matrix(15.5366,0,0,15.5366,156.398,17.3822)">
            <path d="M0.584,-0.264C0.584,-0.255 0.583,-0.243 0.582,-0.227L0.163,-0.227C0.17,-0.188 0.19,-0.157 0.221,-0.134C0.252,-0.111 0.29,-0.099 0.336,-0.099C0.395,-0.099 0.443,-0.118 0.481,-0.157L0.548,-0.08C0.524,-0.051 0.494,-0.03 0.457,-0.015C0.42,-0 0.379,0.007 0.333,0.007C0.274,0.007 0.223,-0.005 0.178,-0.028C0.133,-0.051 0.099,-0.084 0.075,-0.126C0.05,-0.167 0.038,-0.214 0.038,-0.267C0.038,-0.319 0.05,-0.366 0.074,-0.408C0.097,-0.449 0.13,-0.482 0.172,-0.505C0.214,-0.528 0.261,-0.54 0.314,-0.54C0.366,-0.54 0.413,-0.529 0.454,-0.506C0.495,-0.483 0.527,-0.45 0.55,-0.409C0.572,-0.367 0.584,-0.319 0.584,-0.264ZM0.314,-0.44C0.274,-0.44 0.24,-0.428 0.213,-0.405C0.185,-0.381 0.168,-0.349 0.162,-0.31L0.465,-0.31C0.46,-0.349 0.443,-0.38 0.416,-0.404C0.389,-0.428 0.355,-0.44 0.314,-0.44Z" style="fill:rgb(253,77,77);fill-rule:nonzero;"/>
        </g>
        <g transform="matrix(15.5366,0,0,15.5366,166.062,17.3822)">
            <rect x="0.082" y="-0.742" width="0.125" height="0.742" style="fill:rgb(253,77,77);fill-rule:nonzero;"/>
        </g>
        <g transform="matrix(15.5366,0,0,15.5366,170.552,17.3822)">
            <rect x="0.082" y="-0.742" width="0.125" height="0.742" style="fill:rgb(253,77,77);fill-rule:nonzero;"/>
        </g>
    </g>
</svg>
